<svg width="41.000000" height="38.000000" viewBox="0 0 41 38" fill="none" xmlns="http://www.w3.org/2000/svg" xmlns:xlink="http://www.w3.org/1999/xlink">
	<desc>
			Created with Pixso.
	</desc>
	<defs/>
	<path id="“" d="M28.6 38L25.1 34.5C26.8 31.53 28.28 28.56 29.55 25.59C30.82 22.73 31.57 19.92 31.78 17.17L23.83 15.42L23.83 0L41 0L41 11.12C41 17.7 39.72 23 37.18 27.02C34.53 31.16 31.67 34.82 28.6 38ZM4.76 38L1.27 34.5C2.96 31.53 4.44 28.56 5.72 25.59C6.99 22.73 7.73 19.92 7.94 17.17L0 15.42L0 0L17.16 0L17.16 11.12C17.16 17.7 15.89 23 13.34 27.02C10.7 31.16 7.83 34.82 4.76 38Z" fill="#A9A9A9" fill-opacity="1.000000" fill-rule="nonzero"/>
</svg>
