<svg width="16.500183" height="17.500000" viewBox="0 0 16.5002 17.5" fill="none" xmlns="http://www.w3.org/2000/svg" xmlns:xlink="http://www.w3.org/1999/xlink">
	<desc>
			Created with Pixso.
	</desc>
	<defs/>
	<path id="Vector" d="M2.79 10.75C1.66 10.75 0.75 9.85 0.75 8.75C0.75 7.64 1.66 6.75 2.79 6.75C3.92 6.75 4.84 7.64 4.84 8.75C4.84 9.85 3.92 10.75 2.79 10.75Z" stroke="#6C757D" stroke-opacity="1.000000" stroke-width="1.500000" stroke-linejoin="round"/>
	<path id="Vector" d="M13.7 4.75C12.57 4.75 11.65 3.85 11.65 2.75C11.65 1.64 12.57 0.75 13.7 0.75C14.83 0.75 15.75 1.64 15.75 2.75C15.75 3.85 14.83 4.75 13.7 4.75Z" stroke="#6C757D" stroke-opacity="1.000000" stroke-width="1.500000" stroke-linejoin="round"/>
	<path id="Vector" d="M13.7 16.75C12.57 16.75 11.65 15.85 11.65 14.75C11.65 13.64 12.57 12.75 13.7 12.75C14.83 12.75 15.75 13.64 15.75 14.75C15.75 15.85 14.83 16.75 13.7 16.75Z" stroke="#6C757D" stroke-opacity="1.000000" stroke-width="1.500000" stroke-linejoin="round"/>
	<path id="Vector" d="M4.57 9.73L11.92 13.76M11.92 3.73L4.57 7.76" stroke="#6C757D" stroke-opacity="1.000000" stroke-width="1.500000" stroke-linejoin="round" stroke-linecap="round"/>
</svg>
