<svg width="19.651978" height="15.961975" viewBox="0 0 19.652 15.962" fill="none" xmlns="http://www.w3.org/2000/svg" xmlns:xlink="http://www.w3.org/1999/xlink">
	<desc>
			Created with Pixso.
	</desc>
	<defs/>
	<path id="Path" d="M17.63 3.97C17.64 4.15 17.64 4.32 17.64 4.5C17.64 9.82 13.59 15.96 6.18 15.96C3.9 15.96 1.78 15.3 0 14.15C0.32 14.19 0.63 14.2 0.97 14.2C2.85 14.2 4.58 13.56 5.97 12.48C4.2 12.44 2.71 11.28 2.2 9.68C2.45 9.72 2.7 9.75 2.96 9.75C3.32 9.75 3.69 9.7 4.02 9.61C2.18 9.23 0.79 7.61 0.79 5.66L0.79 5.61C1.33 5.9 1.95 6.09 2.61 6.12C1.53 5.4 0.82 4.16 0.82 2.76C0.82 2.02 1.02 1.33 1.37 0.73C3.35 3.17 6.33 4.77 9.67 4.95C9.61 4.65 9.57 4.34 9.57 4.02C9.57 1.8 11.37 0 13.6 0C14.76 0 15.81 0.48 16.54 1.27C17.45 1.09 18.33 0.76 19.1 0.29C18.8 1.23 18.16 2.02 17.33 2.51C18.14 2.43 18.93 2.2 19.65 1.89C19.1 2.69 18.41 3.4 17.63 3.97Z" fill="#000000" fill-opacity="1.000000" fill-rule="nonzero"/>
</svg>
