<svg width="23.000000" height="23.000000" viewBox="0 0 23 23" fill="none" xmlns="http://www.w3.org/2000/svg" xmlns:xlink="http://www.w3.org/1999/xlink">
	<desc>
			Created with Pixso.
	</desc>
	<defs>
		<clipPath id="clip2_54">
			<rect id="tabler:photo" rx="0.000000" width="22.000000" height="22.000000" transform="translate(0.500000 0.500000)" fill="white" fill-opacity="0"/>
		</clipPath>
	</defs>
	<rect id="tabler:photo" rx="0.000000" width="22.000000" height="22.000000" transform="translate(0.500000 0.500000)" fill="#FFFFFF" fill-opacity="0"/>
	<g clip-path="url(#clip2_54)">
		<path id="Vector" d="M14.99 7L15 7" stroke="#FFFFFF" stroke-opacity="1.000000" stroke-width="1.000000" stroke-linejoin="round" stroke-linecap="round"/>
		<path id="Vector" d="M17 3C18.65 3 20 4.34 20 6L20 16C20 17.65 18.65 19 17 19L7 19C5.34 19 4 17.65 4 16L4 6C4 4.34 5.34 3 7 3L17 3Z" stroke="#FFFFFF" stroke-opacity="1.000000" stroke-width="1.000000" stroke-linejoin="round"/>
		<path id="Vector" d="M4 14L8 10C8.45 9.56 8.97 9.33 9.5 9.33C10.02 9.33 10.54 9.56 11 10L16 15" stroke="#FFFFFF" stroke-opacity="1.000000" stroke-width="1.000000" stroke-linejoin="round" stroke-linecap="round"/>
		<path id="Vector" d="M14 13L15 12C15.45 11.56 15.97 11.33 16.5 11.33C17.02 11.33 17.54 11.56 18 12L20 14" stroke="#FFFFFF" stroke-opacity="1.000000" stroke-width="1.000000" stroke-linejoin="round" stroke-linecap="round"/>
	</g>
</svg>
