<svg width="18.000000" height="18.000000" viewBox="0 0 18 18" fill="none" xmlns="http://www.w3.org/2000/svg" xmlns:xlink="http://www.w3.org/1999/xlink">
	<desc>
			Created with Pixso.
	</desc>
	<defs/>
	<path id="Shape" d="M13.5 0L4.5 0C2.02527 0 0 2.02435 0 4.5L0 13.5C0 15.9748 2.02527 18 4.5 18L13.5 18C15.9747 18 18 15.9748 18 13.5L18 4.5C18 2.02435 15.9747 0 13.5 0ZM12.7501 4.12494C12.7501 4.74615 13.2532 5.24994 13.8751 5.24994C14.4969 5.24994 15.0001 4.74615 15.0001 4.12494C15.0001 3.50372 14.4969 2.99994 13.8751 2.99994C13.2532 2.99994 12.7501 3.50372 12.7501 4.12494ZM9 12.7499C6.92871 12.7499 5.24988 11.0704 5.24988 9C5.24988 6.92865 6.92871 5.24994 9 5.24994C11.0704 5.24994 12.7501 6.92865 12.7501 9C12.7501 11.0704 11.0704 12.7499 9 12.7499Z" clip-rule="evenodd" fill="#000000" fill-opacity="1.000000" fill-rule="evenodd"/>
</svg>
