<svg width="36.000000" height="36.000000" viewBox="0 0 36 36" fill="none" xmlns="http://www.w3.org/2000/svg" xmlns:xlink="http://www.w3.org/1999/xlink">
	<desc>
			Created with Pixso.
	</desc>
	<defs>
		<clipPath id="clip0_144">
			<rect id="material-symbols:search" rx="0.000000" width="35.000000" height="35.000000" transform="translate(0.500000 0.500000)" fill="white" fill-opacity="0"/>
		</clipPath>
	</defs>
	<rect id="material-symbols:search" rx="0.000000" width="35.000000" height="35.000000" transform="translate(0.500000 0.500000)" fill="#FFFFFF" fill-opacity="0"/>
	<g clip-path="url(#clip0_144)">
		<path id="Vector" d="M29.4 31.5L19.95 22.05C19.2 22.65 18.33 23.12 17.36 23.47C16.38 23.82 15.35 24 14.25 24C11.52 24 9.21 23.05 7.33 21.16C5.44 19.28 4.5 16.97 4.5 14.25C4.5 11.52 5.44 9.21 7.33 7.33C9.21 5.44 11.52 4.5 14.25 4.5C16.97 4.5 19.28 5.44 21.16 7.33C23.05 9.21 24 11.52 24 14.25C24 15.35 23.82 16.38 23.47 17.36C23.12 18.33 22.65 19.2 22.05 19.95L31.5 29.4L29.4 31.5ZM14.25 21C16.12 21 17.71 20.34 19.03 19.03C20.34 17.71 21 16.12 21 14.25C21 12.37 20.34 10.78 19.03 9.46C17.71 8.15 16.12 7.5 14.25 7.5C12.37 7.5 10.78 8.15 9.46 9.46C8.15 10.78 7.5 12.37 7.5 14.25C7.5 16.12 8.15 17.71 9.46 19.03C10.78 20.34 12.37 21 14.25 21Z" fill="#FFFFFF" fill-opacity="1.000000" fill-rule="nonzero"/>
	</g>
</svg>
