<svg width="22.275391" height="15.779785" viewBox="0 0 22.2754 15.7798" fill="none" xmlns="http://www.w3.org/2000/svg" xmlns:xlink="http://www.w3.org/1999/xlink">
	<desc>
			Created with Pixso.
	</desc>
	<defs/>
	<path id="Shape" d="M19.967 0.546509C20.9288 0.671814 21.8479 1.60712 21.9648 2.58252C22.3789 6.15723 22.3789 9.62366 21.9648 13.1973C21.8479 14.1727 20.9288 15.1091 19.967 15.2333C14.1027 15.962 8.172 15.962 2.3092 15.2333C1.34668 15.1088 0.42749 14.1727 0.310547 13.1973C-0.103516 9.62335 -0.103516 6.15723 0.310547 2.58252C0.42749 1.60712 1.34668 0.67157 2.3092 0.546509C8.172 -0.18219 14.1024 -0.18219 19.967 0.546509ZM9.28125 4.1778L9.28125 11.6031L14.8502 7.89062L9.28125 4.1778Z" clip-rule="evenodd" fill="#000000" fill-opacity="1.000000" fill-rule="evenodd"/>
</svg>
